<?xml version="1.0" standalone="no"?><!DOCTYPE svg PUBLIC "-//W3C//DTD SVG 1.1//EN" "http://www.w3.org/Graphics/SVG/1.1/DTD/svg11.dtd"><svg t="1539007377746" class="icon" style="" viewBox="0 0 1024 1024" version="1.1" xmlns="http://www.w3.org/2000/svg" p-id="1956" xmlns:xlink="http://www.w3.org/1999/xlink" width="200" height="200"><defs><style type="text/css"></style></defs><path d="M211.978 499.835l-28.554-93.348h-55.583l-28.79 93.348-32.056-93.348H4.977l71.93 206.065h42.486L155.51 497.06l36.357 115.492h42.48l71.926-206.065H244.26z m356.383 2.478l-28.565-93.348H484.22l-28.795 93.348-32.046-93.348h-62.029L433.28 615.03h42.49l36.122-115.487 36.352 115.487h42.481l71.916-206.065h-61.998z m388.654-90.865l-32.276 93.348-28.56-93.348h-55.583l-28.79 93.348-32.05-93.348h-62.03l71.926 206.06h42.491l36.122-115.487 36.362 115.487h42.476l71.92-206.06z m-832.579-58.342c5.976-14.536 12.713-28.677 20.23-42.342 20.92 4.295 49.377 9.436 84.567 14.197a584.134 584.134 0 0 0-7.88 28.145h77.05c2.003-6.702 4.081-13.348 6.309-19.84 44.267 3.82 94.858 6.41 150.983 6.41 71.742 0 152.453-4.26 240.108-15.462a586.977 586.977 0 0 1 11.868 28.892h78.68a632.434 632.434 0 0 0-14.752-40.09 1957.72 1957.72 0 0 0 97.992-19.056c11.5 18.79 21.51 38.569 29.957 59.146h79.207C912.492 158.97 728.295 18.975 512.01 18.975c-216.294 0-400.491 139.996-466.76 334.13h79.186z m695.86-124.426a1854.448 1854.448 0 0 1-81.705 14.535c-22.482-41.697-49.838-83.205-82.069-124.457 63.1 23.26 119.071 61.323 163.774 109.922zM543.2 99.784c47.094 51.154 85.832 102.523 116.199 153.963-40.423 4.485-79.243 7.465-116.199 9.206V99.783z m-83.051-3.405c2.995-0.374 5.965-0.84 8.98-1.147V264.96c-48.793 0.312-93.465-1.398-133.345-4.204 45.092-87.121 103.66-145.361 124.365-164.377z m-135.138 40.873c-23.536 32.066-47.8 71.01-68.362 115.983-25.39-3.067-47.55-6.384-66.099-9.549 36.859-44.088 82.616-80.455 134.461-106.434zM903.173 661.79a420.46 420.46 0 0 1-28.37 59.3c-18.918-4.26-48.696-10.26-87.874-15.95 4.674-13.997 8.862-28.482 12.57-43.35h-76.842c-3.43 11.76-7.209 23.219-11.33 34.32-97.741-9.273-229.146-12.811-383.283 5.12-6.022-13.15-11.439-26.292-16.364-39.44h-78.551c5.437 16.65 11.54 33.27 18.514 49.879a1969.753 1969.753 0 0 0-97.572 17.848 417.53 417.53 0 0 1-33.295-67.732h-78.51c63.549 198.84 250.086 343.24 469.74 343.24 219.642 0 406.179-144.4 469.728-343.24h-78.56zM203.602 795.208c27.92-5.279 55.29-9.77 82.053-13.599 23.045 41.661 50.985 83.118 83.773 124.329-63.938-23.22-120.652-61.578-165.826-110.73zM469.13 908.979c-41.067-45.542-75.556-91.259-103.383-137.031a1839.991 1839.991 0 0 1 103.383-7.24v144.271z m83.308 18.94l0.809 0.967c-3.339 0.338-6.707 0.522-10.05 0.778V763.136c49.699-0.03 95.006 2.002 135.106 5.12-54.574 99.794-124.754 158.746-125.865 159.662z m133.069-34.75c24.34-31.58 50.186-70.79 72.401-116.731 27.613 3.568 50.95 7.388 69.525 10.808-39.03 44.672-87.332 80.983-141.926 105.923z" p-id="1957"></path></svg>