<?xml version="1.0" standalone="no"?><!DOCTYPE svg PUBLIC "-//W3C//DTD SVG 1.1//EN" "http://www.w3.org/Graphics/SVG/1.1/DTD/svg11.dtd"><svg t="1534400612575" class="icon" style="" viewBox="0 0 1332 1024" version="1.1" xmlns="http://www.w3.org/2000/svg" p-id="2213" xmlns:xlink="http://www.w3.org/1999/xlink" width="260.15625" height="200"><defs><style type="text/css"></style></defs><path d="M636.060924 708.727626l0-393.455264c0-37.712702-30.574515-68.284808-68.290829-68.284808L375.61702 246.987554c-37.716315 0-68.290829 30.572106-68.290829 68.284808l0 393.455264c0 37.712702 30.574515 68.286013 68.290829 68.286013l192.154279 0C605.48641 777.013639 636.060924 746.440328 636.060924 708.727626zM411.753493 728.835689c-37.716315 0-56.244535-18.528221-56.244535-56.240923L355.508958 351.406426c0-37.712702 18.528221-56.239719 56.244535-56.239719l119.880129 0c37.716315 0 56.244535 18.527017 56.244535 56.239719L587.878158 672.593562c0 37.712702-18.528221 56.240923-56.244535 56.240923L411.753493 728.834485z" p-id="2214"></path><path d="M592.773018 253.316554 592.773018 319.987804 973.407722 100.979827 973.407722 921.392153 592.773018 702.38538 592.773018 770.685843 1032.848065 1023.999988 1032.848065 0Z" p-id="2215"></path><path d="M1089.55981 171.488696l0 54.71888c115.777598 50.833096 193.551091 167.159785 193.551091 301.978571 0 134.251632-78.035997 250.126767-193.551091 301.288594l0 55.408857c139.212721-49.130431 241.766369-177.751468 241.766369-357.105657C1331.326179 353.729227 1228.772531 222.206194 1089.55981 171.488696z" p-id="2216"></path><path d="M1089.55981 306.113614l0 63.397173c51.431557 41.859787 68.736364 86.988835 68.736364 159.005297 0 71.680505-17.380668 117.224984-68.736364 159.090791l0 63.312882c69.711723-43.787627 116.951642-121.70923 116.951642-223.015381C1206.511452 429.592941 1159.271533 350.889847 1089.55981 306.113614z" p-id="2217"></path></svg>