<?xml version="1.0" standalone="no"?><!DOCTYPE svg PUBLIC "-//W3C//DTD SVG 1.1//EN" "http://www.w3.org/Graphics/SVG/1.1/DTD/svg11.dtd"><svg t="1537322744223" class="icon" style="" viewBox="0 0 1024 1024" version="1.1" xmlns="http://www.w3.org/2000/svg" p-id="1821" xmlns:xlink="http://www.w3.org/1999/xlink" width="200" height="200"><defs><style type="text/css"></style></defs><path d="M971.011691 820.677219a58.473252 58.473252 0 0 0-15.798037-41.033861l-84.734923-143.618513v-201.681427A319.653777 319.653777 0 0 0 804.003877 246.203166a380.999399 380.999399 0 0 0-172.957724-128.641154h-1.231016l-15.798036-4.718894V102.584652a102.584652 102.584652 0 0 0-205.169305 0v9.437788l-13.541174 3.898217a380.383891 380.383891 0 0 0-175.830095 129.256662 320.269285 320.269285 0 0 0-67.911039 189.166099V636.024845L60.675486 790.312162a58.88359 58.88359 0 0 0 0 60.114606 38.776999 38.776999 0 0 0 42.880384 20.516931h255.025446a153.056301 153.056301 0 1 0 306.112603 0h255.230615A44.932078 44.932078 0 0 0 971.011691 820.677219zM512.047956 54.985374a48.419956 48.419956 0 0 1 48.830295 44.932077L544.875045 97.25025a27.082348 27.082348 0 0 0-6.975757 0h-2.87237a125.768784 125.768784 0 0 0-46.368263 0h-2.462031a29.749549 29.749549 0 0 0-7.386095 0l-16.003206 2.256863a48.214787 48.214787 0 0 1 49.240633-44.521739z m0 917.106792a112.22761 112.22761 0 0 1-102.584652-101.353637h204.143458a112.637948 112.637948 0 0 1-101.558806 101.353637zM106.223071 820.677219a8.411941 8.411941 0 0 1 0-3.487878l94.58305-161.057904a25.851332 25.851332 0 0 0 3.487878-12.720497V434.548587A307.753957 307.753957 0 0 1 413.156351 164.135444a553.957123 553.957123 0 0 1 65.449008-15.387698 25.646163 25.646163 0 0 0 5.539572 0l11.69465-1.436185a104.636345 104.636345 0 0 1 15.387698-1.641355 102.584652 102.584652 0 0 1 15.387698 1.641355l11.69465 1.436185h5.129233a577.756762 577.756762 0 0 1 69.757563 16.618714 307.753957 307.753957 0 0 1 204.143459 268.36145v208.657183a25.851332 25.851332 0 0 0 3.487878 12.720497l90.069324 153.671809a25.235824 25.235824 0 0 0 4.718895 5.744741 7.796434 7.796434 0 0 1 2.256862 5.129232z" p-id="1822"></path><path d="M502.815337 312.88319A174.804248 174.804248 0 0 1 462.807323 346.325786a199.424564 199.424564 0 0 1-46.778602 20.516931l-7.591264 2.051693v61.550791l13.130836-3.898216a205.169305 205.169305 0 0 0 69.552394-35.083952v290.109397h61.550791V309.395312H505.892877z" p-id="1823"></path></svg>