<?xml version="1.0" standalone="no"?><!DOCTYPE svg PUBLIC "-//W3C//DTD SVG 1.1//EN" "http://www.w3.org/Graphics/SVG/1.1/DTD/svg11.dtd"><svg t="1534904722096" class="icon" style="" viewBox="0 0 1024 1024" version="1.1" xmlns="http://www.w3.org/2000/svg" p-id="2220" xmlns:xlink="http://www.w3.org/1999/xlink" width="200" height="200"><defs><style type="text/css"></style></defs><path d="M903.232 138.24h-782.48a44 44 0 0 0-43.96 44.048v659.424a44 44 0 0 0 43.96 44.048h782.48a44.008 44.008 0 0 0 43.968-44.048V182.288a44.008 44.008 0 0 0-43.968-44.048z m-8.256 693.32H127.096V190.352h767.88v641.208z" p-id="2221"></path><path d="M508.768 341.968a38.296 38.296 0 1 0 0 76.6 38.296 38.296 0 0 0 0-76.6z m0 178.696a25.52 25.52 0 0 0-25.528 25.528v76.584a25.528 25.528 0 1 0 51.064 0v-76.584a25.544 25.544 0 0 0-25.536-25.528z m321.424-49.008c-28.16 0-51.056-23.168-51.056-51.664v-75.128c0-54.392-43.72-98.632-97.464-98.632h-24.744c-12.808 0-23.208 10.504-23.208 23.48 0 12.96 10.408 23.488 23.208 23.488h24.744c28.152 0 51.048 23.168 51.048 51.664V420c0 30.072 13.376 57.04 34.408 75.152a98.88 98.88 0 0 0-34.408 75.136v75.128c0 28.504-22.896 51.672-51.048 51.672h-24.744c-12.808 0-23.208 10.504-23.208 23.496 0 12.968 10.408 23.488 23.208 23.488h24.744c53.744 0 97.464-44.232 97.464-98.648v-75.128c0-28.496 22.896-51.656 51.056-51.656 12.816 0 23.208-10.504 23.208-23.48s-10.392-23.504-23.208-23.504zM284.808 420v-75.128c0-28.504 22.88-51.664 51.04-51.664h24.76c12.808 0 23.2-10.528 23.2-23.488 0-12.976-10.4-23.48-23.2-23.48h-24.76c-53.736 0-97.448 44.24-97.448 98.632V420c0 28.496-22.92 51.664-51.056 51.664-12.816 0-23.208 10.52-23.208 23.496s10.392 23.48 23.208 23.48c28.136 0 51.056 23.168 51.056 51.656v75.128c0 54.416 43.712 98.648 97.448 98.648h24.76c12.808 0 23.2-10.504 23.2-23.488s-10.4-23.496-23.2-23.496h-24.76c-28.16 0-51.04-23.168-51.04-51.672v-75.128a98.88 98.88 0 0 0-34.4-75.136 98.976 98.976 0 0 0 34.4-75.152z" p-id="2222"></path></svg>