<?xml version="1.0" standalone="no"?><!DOCTYPE svg PUBLIC "-//W3C//DTD SVG 1.1//EN" "http://www.w3.org/Graphics/SVG/1.1/DTD/svg11.dtd"><svg t="1539163273754" class="icon" style="" viewBox="0 0 1024 1024" version="1.1" xmlns="http://www.w3.org/2000/svg" p-id="2517" xmlns:xlink="http://www.w3.org/1999/xlink" width="200" height="200"><defs><style type="text/css"></style></defs><path d="M311.841819 323.608306l633.365138 0 0 633.360022-633.365138 0L311.841819 323.608306 311.841819 323.608306 311.841819 323.608306zM395.187039 407.030273l0 468.791919 466.519156 0L861.706195 407.030273 395.187039 407.030273 395.187039 407.030273 395.187039 407.030273zM395.187039 407.030273" p-id="2518"></path><path d="M76.268546 66.508763l633.358999 0 0 633.357975L76.268546 699.866738 76.268546 66.508763 76.268546 66.508763 76.268546 66.508763zM159.613766 149.85296l0 468.797036 466.597951 0 0-468.797036L159.613766 149.85296 159.613766 149.85296 159.613766 149.85296zM159.613766 149.85296" p-id="2519"></path></svg>