<?xml version="1.0" standalone="no"?><!DOCTYPE svg PUBLIC "-//W3C//DTD SVG 1.1//EN" "http://www.w3.org/Graphics/SVG/1.1/DTD/svg11.dtd"><svg t="1533804697193" class="icon" style="" viewBox="0 0 1024 1024" version="1.1" xmlns="http://www.w3.org/2000/svg" p-id="2212" xmlns:xlink="http://www.w3.org/1999/xlink" width="200" height="200"><defs><style type="text/css"></style></defs><path d="M672 544l-320 0c-17.664 0-32 14.336-32 32s14.336 32 32 32l320 0c17.664 0 32-14.336 32-32S689.664 544 672 544zM736 352l-448 0c-17.664 0-32 14.336-32 32s14.336 32 32 32l448 0c17.664 0 32-14.336 32-32S753.664 352 736 352zM512 0C229.248837 0 0 200.575163 0 448c0 141.409046 75.039791 267.295791 192 349.408209L192 1024l224.287791-136.096627c31.041255 5.121673 62.976 8.096627 95.712209 8.096627 282.784627 0 512-200.575163 512-448C1024 200.575163 794.784627 0 512 0zM512 832c-37.376 0-73.472-4.352-108.160837-11.744209l-150.656837 90.558745 2.016209-148.414745C139.712418 692.928418 64 578.113255 64 448c0-212.063373 200.575163-384 448-384 247.424837 0 448 171.936627 448 384S759.424837 832 512 832z" p-id="2213"></path></svg>