<?xml version="1.0" standalone="no"?><!DOCTYPE svg PUBLIC "-//W3C//DTD SVG 1.1//EN" "http://www.w3.org/Graphics/SVG/1.1/DTD/svg11.dtd"><svg t="1537863145955" class="icon" style="" viewBox="0 0 1024 1024" version="1.1" xmlns="http://www.w3.org/2000/svg" p-id="1851" xmlns:xlink="http://www.w3.org/1999/xlink" width="200" height="200"><defs><style type="text/css"></style></defs><path d="M385.97853 546.116991H93.011236A92.811242 92.811242 0 0 0 0 638.872235v292.399311a92.811242 92.811242 0 0 0 93.010236 92.727244h292.969294a92.982237 92.982237 0 0 0 93.010236-92.727244V638.843236a92.982237 92.982237 0 0 0-93.010236-92.726245zM385.97853 0.00022H93.011236A92.811242 92.811242 0 0 0 0 92.727464v292.399311a92.783243 92.783243 0 0 0 93.010236 92.726245h292.969294a92.953238 92.953238 0 0 0 93.010236-92.727245V92.727464A92.982237 92.982237 0 0 0 385.97953 0.00022z m544.979805 546.116771H637.991041a92.982237 92.982237 0 0 0-93.011236 92.755244v292.399311a92.982237 92.982237 0 0 0 93.011236 92.727244h292.968294a92.811242 92.811242 0 0 0 93.010236-92.727244V638.843236a92.811242 92.811242 0 0 0-93.010236-92.754244z m-107.516805-58.821252l176.634751-176.150765a79.243645 79.243645 0 0 0 0-111.72668L823.44153 23.267529a79.101649 79.101649 0 0 0-111.782678 0L535.024101 199.418294a78.73166 78.73166 0 0 0 0 111.72668L711.658852 487.295739a79.044651 79.044651 0 0 0 111.782678-0.027999z" p-id="1852"></path></svg>