<?xml version="1.0" standalone="no"?><!DOCTYPE svg PUBLIC "-//W3C//DTD SVG 1.1//EN" "http://www.w3.org/Graphics/SVG/1.1/DTD/svg11.dtd"><svg t="1533862836246" class="icon" style="" viewBox="0 0 1024 1024" version="1.1" xmlns="http://www.w3.org/2000/svg" p-id="1194" xmlns:xlink="http://www.w3.org/1999/xlink" width="200" height="200"><defs><style type="text/css"></style></defs><path d="M32 64 96 0 96 1024 32 960 958.476192 960 894.476192 1024 894.476192 0 958.476192 64 32 64ZM958.476192 0 958.476192 1024 32 1024 32 0 958.476192 0Z" p-id="1195"></path><path d="M178.285715 210.285715 242.285715 146.285715 242.285715 438.857143 178.285715 374.857143 812.190477 374.857143 748.190477 438.857143 748.190477 146.285715 812.190477 210.285715 178.285715 210.285715ZM812.190477 146.285715 812.190477 438.857143 178.285715 438.857143 178.285715 146.285715 812.190477 146.285715Z" p-id="1196"></path><path d="M178.285715 746.666669 242.285715 682.666669 242.285715 877.714285 178.285715 813.714285 812.190477 813.714285 748.190477 877.714285 748.190477 682.666669 812.190477 746.666669 178.285715 746.666669ZM812.190477 682.666669 812.190477 877.714285 178.285715 877.714285 178.285715 682.666669 812.190477 682.666669Z" p-id="1197"></path><path d="M787.809523 592.761905C805.482637 592.761905 819.809523 578.435017 819.809523 560.761905 819.809523 543.088793 805.482637 528.761905 787.809523 528.761905L202.666667 528.761905C184.993555 528.761905 170.666667 543.088793 170.666667 560.761905 170.666667 578.435017 184.993555 592.761905 202.666667 592.761905L787.809523 592.761905Z" p-id="1198"></path></svg>