<?xml version="1.0" standalone="no"?><!DOCTYPE svg PUBLIC "-//W3C//DTD SVG 1.1//EN" "http://www.w3.org/Graphics/SVG/1.1/DTD/svg11.dtd"><svg t="1537322236443" class="icon" style="" viewBox="0 0 1024 1024" version="1.1" xmlns="http://www.w3.org/2000/svg" p-id="1710" xmlns:xlink="http://www.w3.org/1999/xlink" width="200" height="200"><defs><style type="text/css"></style></defs><path d="M921.51296 76.8H102.48704c-37.7088 0.1024-68.2496 30.6432-68.352 68.352v563.02592c0.10752 37.7088 30.6432 68.2496 68.352 68.352H289.9968c30.42816 0 45.65504 36.8128 24.09984 58.30144L252.69248 896.0512c-13.07648 22.74816 3.34336 51.1488 29.5936 51.1488h467.16928c26.25024 0 42.66496-28.38016 29.58848-51.12832l-61.39904-61.21984c-21.56032-21.48864-6.33344-58.30144 24.09472-58.30144h179.77856c37.70368-0.1024 68.24448-30.6432 68.35712-68.352V145.152c-0.11264-37.7088-30.65344-68.2496-68.36224-68.352z m-91.47392 563.38944H181.504c-18.77504 0-34.13504-15.36-34.13504-34.13504s15.36-34.13504 34.13504-34.13504h648.53504c18.76992 0 34.12992 15.36 34.12992 34.13504s-15.36 34.13504-34.12992 34.13504zM476.16 441.17504c0 33.93024-27.50976 61.44-61.44 61.44H209.06496c-33.93024 0-61.44-27.50976-61.44-61.44v-204.8c0-33.93024 27.50976-61.44 61.44-61.44H414.72c33.93024 0 61.44 27.50976 61.44 61.44v204.8z m400.21504-216.69888c0 11.81184-10.76736 21.38624-24.04352 21.38624h-314.5728c-13.28128 0-24.04352-9.5744-24.04352-21.38624 0-11.81184 10.76224-21.38624 24.04352-21.38624h314.5728c13.27616 0.00512 24.04352 9.57952 24.04352 21.38624z m0 79.30368c0 11.80672-10.76736 21.38112-24.04352 21.38112h-314.5728c-13.28128 0-24.04352-9.5744-24.04352-21.38112 0-11.81184 10.76224-21.38624 24.04352-21.38624h314.5728c13.27616 0 24.04352 9.5744 24.04352 21.38624z m0 78.40768c0 11.81184-10.76736 21.38624-24.04352 21.38624h-314.5728c-13.28128 0-24.04352-9.5744-24.04352-21.38624 0-11.81184 10.76224-21.38624 24.04352-21.38624h314.5728c13.27616 0 24.04352 9.5744 24.04352 21.38624z m0 81.97632c0 11.81184-10.76736 21.38624-24.04352 21.38624h-314.5728c-13.28128 0-24.04352-9.5744-24.04352-21.38624 0-11.81184 10.76224-21.38624 24.04352-21.38624h314.5728c13.27616 0 24.04352 9.5744 24.04352 21.38624z" p-id="1711"></path><path d="M193.23904 338.61632c0-20.80256 2.14016-37.53984 6.42048-50.22208s10.63936-22.46144 19.08224-29.3376 19.06176-10.32192 31.86176-10.32192c9.44128 0 17.72032 1.89952 24.84224 5.69856s12.99968 9.28256 17.6384 16.44032 8.27904 15.88224 10.92096 26.15808 3.95776 24.1408 3.95776 41.57952c0 20.63872-2.11968 37.2992-6.35904 49.98144s-10.57792 22.48192-19.0208 29.39904-19.0976 10.37824-31.97952 10.37824c-16.96256 0-30.27968-6.08256-39.9616-18.24256-11.60192-14.63296-17.40288-38.47168-17.40288-71.51104z m22.20032 0c0 28.88192 3.3792 48.1024 10.1376 57.66144s15.09888 14.34112 25.02144 14.34112 18.25792-4.80256 25.02144-14.40256 10.1376-28.8 10.1376-57.6c0-28.95872-3.3792-48.19968-10.1376-57.71776s-15.1808-14.27968-25.26208-14.27968c-9.92256 0-17.83808 4.1984-23.76192 12.60032-7.43424 10.71616-11.15648 30.5152-11.15648 59.39712zM330.04032 378.93632l21.60128-2.88256c2.47808 12.24192 6.70208 21.05856 12.66176 26.46016s13.21984 8.09984 21.78048 8.09984c10.15808 0 18.7392-3.52256 25.73824-10.56256s10.50112-15.75936 10.50112-26.15808c0-9.92256-3.24096-18.0992-9.71776-24.54016s-14.72-9.66144-24.71936-9.66144c-4.08064 0-9.15968 0.79872-15.24224 2.40128l2.40128-18.95936c1.43872 0.15872 2.60096 0.24064 3.4816 0.24064 9.20064 0 17.47968-2.40128 24.84224-7.19872s11.03872-12.20096 11.03872-22.20032c0-7.92064-2.67776-14.47936-8.0384-19.68128s-12.27776-7.79776-20.7616-7.79776c-8.40192 0-15.40096 2.64192-21.00224 7.92064s-9.20064 13.19936-10.79808 23.76192l-21.60128-3.84c2.64192-14.47936 8.64256-25.7024 18.00192-33.65888s21.00224-11.93984 34.9184-11.93984c9.6 0 18.44224 2.05824 26.5216 6.17984s14.2592 9.73824 18.53952 16.86016 6.42048 14.67904 6.42048 22.6816c0 7.59808-2.03776 14.52032-6.1184 20.7616s-10.12224 11.20256-18.11968 14.87872c10.39872 2.40128 18.47808 7.37792 24.23808 14.94016s8.64256 17.01888 8.64256 28.38016c0 15.36-5.60128 28.38016-16.79872 39.06048s-25.35936 16.02048-42.48064 16.02048c-15.44192 0-28.2624-4.59776-38.46144-13.7984s-16.03072-21.13024-17.46944-35.76832z" p-id="1712"></path></svg>