<?xml version="1.0" standalone="no"?><!DOCTYPE svg PUBLIC "-//W3C//DTD SVG 1.1//EN" "http://www.w3.org/Graphics/SVG/1.1/DTD/svg11.dtd"><svg t="1534293614413" class="icon" style="" viewBox="0 0 1024 1024" version="1.1" xmlns="http://www.w3.org/2000/svg" p-id="2230" xmlns:xlink="http://www.w3.org/1999/xlink" width="200" height="200"><defs><style type="text/css"></style></defs><path d="M255.043 399.68h384.512v-28.482h-384.512v28.482zM255.043 656.015h91.921c-0.133-10.027 0.876-19.628 2.722-28.482h-94.646l0.004 28.482zM753.48 285.751v147.903c10.693 1.906 20.183 4.12 28.482 6.411v-156.396c0-62.879-49.229-112.542-111.55-112.542l-30.861 0.698v28.484h28.482c41.791 0 85.448 43.278 85.448 85.44zM386.043 499.365h-131v28.482h118.48c3.004-10.595 7.245-20.045 12.519-28.482zM554.112 114.857h-213.615v28.482h213.618v-28.482zM240.81 855.394c-51.084 0-99.689-48.157-99.689-99.693v-469.949c0-42.162 43.657-85.444 85.447-85.444h28.482v-28.484l-30.854-0.692c-62.326 0-111.559 49.661-111.559 112.539v468.908c0 72.255 58.523 131.295 130.147 131.295h147.323c-7.432-9.322-13.183-18.89-17.611-28.482h-131.685zM440.183 157.584v28.482h-85.448v28.484h185.13v-28.484h-71.202v-28.482h-28.482zM397.463 584.809c0 61.176 110.198 99.682 256.336 99.682 146.14 0 256.339-38.508 256.339-99.683 0-61.181-110.198-113.928-256.339-113.928-146.137 0-256.336 52.75-256.336 113.928zM881.648 584.809c0 37.949-93.117 71.198-227.86 71.198s-227.854-33.249-227.854-71.198c0-37.953 93.111-85.448 227.854-85.448 134.743 0.004 227.86 47.497 227.86 85.448zM887.669 761.34c-0.114-0.070-0.168-0.201-0.26-0.279-0.098-0.095-0.177-0.205-0.273-0.307l-0.067 0.067c-2.246-2.008-5.183-3.308-8.475-3.308-6.971 0-12.631 5.532-12.631 12.352 0 3.609 1.653 6.788 4.174 9.043l-0.060 0.053c8.431 8.286 11.571 25.358 11.571 33.712 0 38.273-92.698 71.202-227.86 71.202-135.139 0-227.854-32.928-227.854-71.202 0-9.535 1.399-24.64 12.145-33.922 0.13-0.12 0.266-0.225 0.39-0.349 0.076-0.070 0.143-0.137 0.225-0.213l-0.048-0.048c2.052-2.198 3.384-5.075 3.384-8.295 0-6.813-5.652-12.349-12.624-12.349-3.489 0-6.645 1.383-8.926 3.617l-0.067-0.067c-17.484 9.24-22.953 35.469-22.953 51.624 0 60.785 110.602 99.689 256.339 99.689 145.74 0 258.117-38.924 256.339-99.689-0.894-30.464-8.511-43.939-22.471-51.332zM881.648 641.773c-0.089-0.064 4.212 4.577 5.351 5.812l-0.067 0.073c-2.248-2.020-5.186-3.308-8.469-3.308-6.979 0-12.631 5.519-12.631 12.346 0 3.613 1.65 6.782 4.171 9.047l-0.057 0.053c8.431 8.288 11.698 24.599 11.698 32.954 0 38.279-92.698 71.208-227.857 71.208-135.139 0-227.854-32.928-227.854-71.208 0-9.535 1.262-23.882 12.018-33.166 0.127-0.124 0.258-0.225 0.381-0.349 0.079-0.070 0.149-0.142 0.232-0.213l-0.057-0.041c2.059-2.198 3.391-5.082 3.391-8.295 0-6.823-5.652-12.358-12.624-12.358-3.492 0-6.652 1.389-8.926 3.617l-0.070-0.067c-19.026 9.713-22.819 34.714-22.819 50.872 0 60.785 110.602 99.686 256.339 99.686 145.734 0 256.339-38.904 256.339-99.686 0-16.060-7.852-44.237-28.487-56.975zM887.18 647.784c0.063 0.067 0.105 0.112 0.098 0.105-0.045-0.037-0.073-0.070-0.098-0.105z" p-id="2231"></path></svg>