<?xml version="1.0" standalone="no"?><!DOCTYPE svg PUBLIC "-//W3C//DTD SVG 1.1//EN" "http://www.w3.org/Graphics/SVG/1.1/DTD/svg11.dtd"><svg t="1535429827655" class="icon" style="" viewBox="0 0 1024 1024" version="1.1" xmlns="http://www.w3.org/2000/svg" p-id="1068" xmlns:xlink="http://www.w3.org/1999/xlink" width="200" height="200"><defs><style type="text/css"></style></defs><path d="M512 960C264.533333 960 64 759.466667 64 512S264.533333 64 512 64s448 200.533333 448 448-200.533333 448-448 448z m0-842.666667C294.4 117.333333 117.333333 294.4 117.333333 512S294.4 906.666667 512 906.666667 906.666667 729.6 906.666667 512 729.6 117.333333 512 117.333333z" fill="" p-id="1069"></path><path d="M672 556.8h-134.4v-85.333333h128v-53.333334h-115.2l98.133333-98.133333-36.266666-36.266667-100.266667 98.133334-100.266667-98.133334-36.266666 36.266667 98.133333 98.133333h-115.2v53.333334h128v85.333333h-134.4v53.333333h134.4v149.333334h51.2v-149.333334h134.4z" fill="" p-id="1070"></path></svg>