<?xml version="1.0" standalone="no"?><!DOCTYPE svg PUBLIC "-//W3C//DTD SVG 1.1//EN" "http://www.w3.org/Graphics/SVG/1.1/DTD/svg11.dtd"><svg t="1537147824619" class="icon" style="" viewBox="0 0 1024 1024" version="1.1" xmlns="http://www.w3.org/2000/svg" p-id="1874" xmlns:xlink="http://www.w3.org/1999/xlink" width="200" height="200"><defs><style type="text/css"></style></defs><path d="M482.242256 500.56353c-0.99977 0-1.810229-0.827855-1.810229-1.852184 0-1.023306 0.811482-1.854231 1.810229-1.854231l11.468193 0 0-2.233877c-0.088004-0.155543-0.151449-0.313132-0.191358-0.484024l-10.636245-11.348466c-0.707105-0.723477-0.707105-1.896186 0-2.619664 0.707105-0.723477 1.854231-0.723477 2.560312 0l10.077519 10.854209 10.076496-10.854209c0.707105-0.723477 1.854231-0.723477 2.561335 0 0.706081 0.723477 0.706081 1.896186 0 2.619664l-10.636245 11.347442c-0.039909 0.170892-0.103354 0.327458-0.191358 0.485047l0 2.232854 11.468193 0c0.99977 0 1.811252 0.829901 1.811252 1.854231 0 1.02433-0.811482 1.852184-1.811252 1.852184l-11.468193 0 0 4.257977 11.468193 0c0.99977 0 1.810229 0.829901 1.810229 1.852184 0 1.025353-0.810459 1.853208-1.810229 1.853208l-11.468193 0 0 7.896854c0 1.025353-0.811482 1.852184-1.811252 1.852184-0.99977 0-1.810229-0.827855-1.810229-1.852184l0-7.896854-11.468193 0c-0.99977 0-1.810229-0.827855-1.810229-1.853208 0-1.023306 0.811482-1.852184 1.810229-1.852184l11.468193 0 0-4.257977L482.242256 500.562507zM534.077831 515.391237c-2.13257 5.058203-5.188162 9.597589-9.076726 13.499455-3.89061 3.89982-8.42181 6.960529-13.468756 9.097192-5.226025 2.215458-10.774391 3.341095-16.493649 3.341095-5.720282 0-11.268648-1.125637-16.491603-3.341095-3.802606-1.609661-7.310499-3.744277-10.473539-6.365988l6.304589 0c5.982248 3.803629 13.066597 6.01704 20.660552 6.01704 21.333888 0 38.689161-17.395182 38.689161-38.777165 0-21.381983-17.355273-38.779212-38.689161-38.779212-21.331841 0-38.689161 17.397229-38.689161 38.779212l-3.681856 0c0-5.732561 1.122567-11.294231 3.330862-16.531512 2.134617-5.058203 5.188162-9.597589 9.076726-13.500479 3.891633-3.89675 8.422833-6.959505 13.471826-9.097192 5.222955-2.215458 10.772344-3.338025 16.491603-3.338025 5.720282 0 11.268648 1.12359 16.493649 3.338025 5.046946 2.137687 9.576099 5.199419 13.468756 9.097192 3.889587 3.900843 6.944156 8.442276 9.076726 13.500479 2.208295 5.237281 3.330862 10.79895 3.330862 16.531512C537.408693 504.595356 536.285103 510.156002 534.077831 515.391237zM463.625246 504.325204c-0.63445-0.671289-0.617054-1.740644 0.039909-2.388397 0.655939-0.648776 1.703805-0.629333 2.337231 0.040932l9.136078 9.66308c0.068562 0.071631 0.100284 0.162706 0.153496 0.243547 0.063445 0.096191 0.140193 0.182149 0.184195 0.290619 0.081864 0.204661 0.125867 0.421602 0.125867 0.639566 0 0.217964-0.044002 0.433882-0.125867 0.638543-0.046049 0.11461-0.124843 0.205685-0.193405 0.304945-0.051165 0.075725-0.080841 0.161682-0.145309 0.230244l-9.135054 9.664104c-0.63445 0.670266-1.681292 0.688685-2.337231 0.040932-0.656963-0.648776-0.674359-1.717108-0.039909-2.388397l6.430456-6.801916-21.772886 0c-0.911766 0-1.65264-0.756223-1.65264-1.688455 0-0.933255 0.740874-1.688455 1.65264-1.688455l21.771863 0L463.625246 504.325204z" p-id="1875"></path><path d="M954.305685 641.721457c0.798179 1.99647 1.231037 4.105504 1.231037 6.231935 0 2.119267-0.431835 4.227278-1.230014 6.220678-0.447185 1.11745-1.218758 2.00568-1.88493 2.983961-0.496304 0.735757-0.783853 1.569752-1.411139 2.233877l-89.005127 94.152357c-6.181793 6.529717-16.375969 6.712889-22.769586 0.403183-6.40078-6.320962-6.568602-16.733103-0.394996-23.266913l62.647829-66.272379L689.363524 664.408155c-8.888438 0-16.102746-7.370875-16.102746-16.454764 0-9.089006 7.214309-16.455787 16.102746-16.455787l212.124212 0-62.645782-66.2601c-6.181793-6.540973-6.012947-16.959254 0.394996-23.266913 6.393617-6.320962 16.594957-6.132674 22.769586 0.401136l89.016383 94.146217c0.666172 0.705058 0.980327 1.588171 1.49812 2.37407C953.142186 639.827317 953.881013 640.663358 954.305685 641.721457zM608.571453 492.479411c9.739828 0 17.642822 8.088212 17.642822 18.063401 0 9.979282-7.902994 18.041912-17.642822 18.041912l-111.734804 0 0 41.48074 111.73378 0c9.740852 0 17.642822 8.081049 17.642822 18.044982 0 9.989515-7.90197 18.052145-17.642822 18.052145L496.836649 606.16259l0 76.939323c0 9.985422-7.900947 18.048051-17.641799 18.048051-9.739828 0-17.640776-8.06263-17.640776-18.048051l0-76.94137L349.818247 606.160543c-9.739828 0-17.640776-8.060583-17.640776-18.050098 0-9.965979 7.900947-18.044982 17.640776-18.044982l111.73685 0 0-41.48074L349.818247 528.584724c-9.739828 0-17.640776-8.064676-17.640776-18.043958 0-9.972119 7.900947-18.061354 17.640776-18.061354l111.73378 0 0-21.762653c-0.861624-1.512447-1.477654-3.054569-1.865487-4.710278L356.063485 355.442338c-6.890944-7.051603-6.890944-18.473747 0-25.526373 6.889921-7.052626 18.069541-7.052626 24.946159 0l98.187253 105.752556 98.171903-105.752556c6.889921-7.052626 18.063401-7.052626 24.957415 0 6.879688 7.051603 6.879688 18.473747 0 25.526373L498.704183 465.998293c-0.393973 1.663896-1.004887 3.193739-1.867534 4.721535l0 21.759583L608.571453 492.479411zM474.474338 134.187165c-207.828372 0-376.943025 169.498392-376.943025 377.819998 0 208.320583 169.093163 377.797485 376.943025 377.797485 88.553848 0 170.007999-30.839379 234.411821-82.262562l54.402027 0c-37.2156 36.553521-80.264045 65.397453-128.114866 85.663008-50.912553 21.585621-104.97075 32.549324-160.697959 32.549324-55.729256 0-109.786429-10.963703-160.678516-32.549324-49.191352-20.823258-93.316316-50.636261-131.249253-88.635713-37.886889-37.993313-67.63133-82.243119-88.432075-131.526569-21.511943-51.001581-32.452109-105.182574-32.452109-161.036673 0-55.855122 10.940167-110.036116 32.452109-161.065326 20.799722-49.281403 50.545186-93.507674 88.432075-131.527592 37.912471-37.969776 82.057901-67.806315 131.249253-88.63162 50.892087-21.581528 104.94926-32.526811 160.678516-32.526811 55.727209 0 109.786429 10.945283 160.697959 32.526811 49.167816 20.825304 93.294826 50.66082 131.224694 88.63162 37.890982 38.001499 67.657936 82.246189 88.436168 131.527592 18.463514 43.793412 29.079292 89.917916 31.734772 137.421836l-35.96512 0C838.376349 291.02112 674.3946 134.187165 474.474338 134.187165z" p-id="1876"></path></svg>