<?xml version="1.0" standalone="no"?><!DOCTYPE svg PUBLIC "-//W3C//DTD SVG 1.1//EN" "http://www.w3.org/Graphics/SVG/1.1/DTD/svg11.dtd"><svg t="1538030161237" class="icon" style="" viewBox="0 0 1024 1024" version="1.1" xmlns="http://www.w3.org/2000/svg" p-id="1855" xmlns:xlink="http://www.w3.org/1999/xlink" width="200" height="200"><defs><style type="text/css"></style></defs><path d="M352.175686 489.110588H192.351373c-14.456471 0-26.503529 12.448627-26.50353 26.50353 0 14.456471 12.448627 26.503529 26.50353 26.503529h161.832156c14.456471 0 26.503529-12.448627 26.50353-26.503529 0-14.054902-12.047059-26.503529-28.511373-26.50353z m100.392157 358.600785H108.423529c-26.503529 0-48.991373-22.487843-48.991372-48.991373V382.694902h835.664314v-208.815686c0-57.424314-46.983529-104.407843-104.407844-104.407843H702.745098V30.519216c0-14.456471-12.448627-26.503529-26.503529-26.50353-14.456471 0-26.503529 12.448627-26.50353 26.50353v36.944313H251.783529V30.519216C251.783529 16.062745 239.334902 4.015686 225.28 4.015686c-14.456471 0-26.503529 12.448627-26.503529 26.50353v36.944313H108.423529C50.999216 69.471373 4.015686 116.454902 4.015686 173.879216v622.832941c0 57.424314 46.983529 104.407843 104.407843 104.407843h342.136471c8.031373 0 14.456471-4.015686 20.48-8.031373 6.023529-6.023529 8.031373-12.448627 8.031373-18.472156 0-16.865882-12.047059-26.905098-26.50353-26.905098zM59.432157 173.879216C59.432157 146.974118 81.92 124.486275 108.423529 124.486275h87.94353v69.471372c0 14.456471 12.448627 26.503529 26.503529 26.503529 14.456471 0 26.503529-12.448627 26.50353-26.503529V122.478431h395.143529v69.471373c0 14.456471 12.448627 26.503529 26.503529 26.503529 14.456471 0 26.503529-12.448627 26.50353-26.503529V122.478431h87.943529c26.503529 0 48.991373 22.487843 48.991373 48.991373V325.270588h-775.027451V173.879216z m890.679216 358.199215c-46.983529-46.983529-110.431373-73.888627-178.296471-73.888627-67.463529 0-130.911373 26.503529-178.296471 73.888627-46.983529 46.983529-73.888627 112.840784-73.888627 180.304314 0 67.463529 26.503529 130.911373 73.888627 180.304314 46.983529 46.983529 110.431373 73.888627 178.296471 73.888627 67.463529 0 130.911373-26.503529 178.296471-73.888627 46.983529-46.983529 73.888627-112.840784 73.888627-180.304314 0-67.463529-26.503529-132.919216-73.888627-180.304314z m-177.894902 379.080785c-108.423529 0-198.776471-89.951373-198.776471-198.776471 0-110.431373 87.943529-198.776471 198.776471-198.77647 110.431373 0 198.776471 89.951373 198.77647 198.77647-2.409412 110.431373-90.352941 198.776471-198.77647 198.776471z m95.974902-227.287843h-69.471373V614.4c0-14.456471-12.448627-26.503529-26.503529-26.503529-14.456471 0-26.503529 12.448627-26.50353 26.503529v124.486275h122.88c14.456471 0 26.503529-12.448627 26.50353-26.50353 0-16.464314-12.448627-28.511373-26.905098-28.511372z m-516.015687 0H192.351373c-14.456471 0-26.503529 12.448627-26.50353 26.503529 0 14.456471 12.448627 26.503529 26.50353 26.503529h161.832156c14.456471 0 26.503529-12.448627 26.50353-26.503529 0-14.456471-12.047059-26.503529-28.511373-26.503529z m0 0" fill="" p-id="1856"></path></svg>