<?xml version="1.0" standalone="no"?><!DOCTYPE svg PUBLIC "-//W3C//DTD SVG 1.1//EN" "http://www.w3.org/Graphics/SVG/1.1/DTD/svg11.dtd"><svg t="1536140692131" class="icon" style="" viewBox="0 0 1024 1024" version="1.1" xmlns="http://www.w3.org/2000/svg" p-id="2857" xmlns:xlink="http://www.w3.org/1999/xlink" width="200" height="200"><defs><style type="text/css"></style></defs><path d="M123.397425 251.643274c18.09103 0 32.759101-14.667048 32.759101-32.759101v-72.104202c0-8.778944 8.123005-15.965623 16.901948-15.965623h678.861332c8.778944 0 14.944364 7.186679 14.944364 15.965623v72.104202c0 18.093077 14.667048 32.759101 32.759101 32.759101s32.765241-14.667048 32.765242-32.759101v-72.104202c0-0.571005 0.473791-1.153266 0.445138-1.711991-0.907673-44.12701-36.569894-79.776951-80.913845-79.776951h-678.861332c-44.343951 0-80.990592 35.649941-81.892125 79.776951-0.030699 0.558725-0.535189 1.140986-0.535189 1.711991v72.104202c0.001023 18.092054 14.674211 32.759101 32.766265 32.759101z m0 0M932.809091 874.522594c0.041956-0.673335-0.419556-1.586125-0.419555-2.27174V800.146653c0-18.09717-14.668071-32.764218-32.765241-32.764218-18.093077 0-32.759101 14.667048-32.759102 32.764218v72.104201c0 0.685615 0.51677 1.357927 0.558726 2.038426-0.041956 0.672312 0.173962 1.819438 0.173962 2.50403 0 8.778944-6.897084 16.392342-15.676028 16.392342H173.065637c-8.785084 0-15.923668-7.614421-15.923667-16.392342 0-0.684592-0.522909-1.598404-0.558725-2.270716 0.035816-0.679475-0.419556-1.586125-0.419556-2.27788V800.146653c0-18.09717-14.674211-32.764218-32.765241-32.764218-18.093077 0-32.765241 14.667048-32.765241 32.764218v72.098061c0 0.691755 0.522909 1.364067 0.558725 2.038426-0.035816 0.678452 0.180102 1.825578 0.180102 2.51017 0 44.909839 36.780695 81.916684 81.694627 81.916685h678.855192c44.914956 0 81.446987-37.006845 81.446987-81.916685-0.001023-0.685615-0.517793-1.598404-0.559749-2.270716z m0 0M132.35033 511.687892c0 32.363082 26.240641 58.603723 58.603723 58.603722s58.601676-26.240641 58.601676-58.603722c0-32.369222-26.238594-58.603723-58.601676-58.603723s-58.603723 26.234501-58.603723 58.603723z m0 0M346.57232 511.687892c0 32.363082 26.232454 58.603723 58.595536 58.603722 32.369222 0 58.603723-26.240641 58.603723-58.603722 0-32.369222-26.234501-58.603723-58.603723-58.603723-32.363082 0-58.595536 26.234501-58.595536 58.603723z m0 0M560.787146 511.687892c0 32.363082 26.240641 58.603723 58.6027 58.603722 32.363082 0 58.603723-26.240641 58.603722-58.603722 0-32.369222-26.240641-58.603723-58.603722-58.603723-32.362059 0-58.602699 26.234501-58.6027 58.603723z m0 0M775.009136 511.687892c0 32.363082 26.234501 58.603723 58.603722 58.603722 32.363082 0 58.595536-26.240641 58.595537-58.603722 0-32.369222-26.232454-58.603723-58.595537-58.603723-32.369222 0-58.603723 26.234501-58.603722 58.603723z m0 0" p-id="2858"></path></svg>